<svg width="27" height="27" viewBox="0 0 27 27" fill="none" xmlns="http://www.w3.org/2000/svg">
<path d="M9.00073 13.5C9.00073 11.0148 11.0148 8.99964 13.5 8.99964C15.9852 8.99964 18.0004 11.0148 18.0004 13.5C18.0004 15.9852 15.9852 18.0004 13.5 18.0004C11.0148 18.0004 9.00073 15.9852 9.00073 13.5ZM6.56789 13.5C6.56789 17.3286 9.67137 20.4321 13.5 20.4321C17.3286 20.4321 20.4321 17.3286 20.4321 13.5C20.4321 9.67136 17.3286 6.56789 13.5 6.56789C9.67137 6.56789 6.56789 9.67136 6.56789 13.5ZM19.0865 6.29309C19.0865 7.18728 19.8116 7.91353 20.7069 7.91353C21.6011 7.91353 22.3273 7.18728 22.3273 6.29309C22.3273 5.39891 21.6022 4.67375 20.7069 4.67375C19.8116 4.67375 19.0865 5.39891 19.0865 6.29309ZM8.04548 24.4886C6.72928 24.4287 6.01393 24.2095 5.53849 24.0241C4.9082 23.7788 4.45893 23.4865 3.98566 23.0143C3.51349 22.5422 3.22015 22.0929 2.97589 21.4626C2.79051 20.9872 2.57132 20.2718 2.51135 18.9556C2.44592 17.5326 2.43284 17.1051 2.43284 13.5C2.43284 9.89491 2.44701 9.46854 2.51135 8.04439C2.57132 6.72819 2.7916 6.01393 2.97589 5.5374C3.22124 4.90711 3.51349 4.45784 3.98566 3.98457C4.45784 3.5124 4.90711 3.21906 5.53849 2.9748C6.01393 2.78942 6.72928 2.57023 8.04548 2.51026C9.46854 2.44483 9.896 2.43174 13.5 2.43174C17.1051 2.43174 17.5315 2.44592 18.9556 2.51026C20.2718 2.57023 20.9861 2.79051 21.4626 2.9748C22.0929 3.21906 22.5422 3.5124 23.0154 3.98457C23.4876 4.45674 23.7798 4.90711 24.0252 5.5374C24.2106 6.01284 24.4298 6.72819 24.4897 8.04439C24.5552 9.46854 24.5683 9.89491 24.5683 13.5C24.5683 17.104 24.5552 17.5315 24.4897 18.9556C24.4298 20.2718 24.2095 20.9872 24.0252 21.4626C23.7798 22.0929 23.4876 22.5422 23.0154 23.0143C22.5433 23.4865 22.0929 23.7788 21.4626 24.0241C20.9872 24.2095 20.2718 24.4287 18.9556 24.4886C17.5326 24.5541 17.1051 24.5672 13.5 24.5672C9.896 24.5672 9.46854 24.5541 8.04548 24.4886V24.4886ZM7.93425 0.0817851C6.49701 0.147213 5.51559 0.375121 4.65739 0.708805C3.76975 1.05339 3.01733 1.51575 2.26599 2.26599C1.51575 3.01624 1.05339 3.76866 0.708805 4.65739C0.375121 5.51559 0.147213 6.49701 0.0817851 7.93425C0.0152666 9.37367 0 9.83384 0 13.5C0 17.1662 0.0152666 17.6263 0.0817851 19.0658C0.147213 20.503 0.375121 21.4844 0.708805 22.3426C1.05339 23.2302 1.51466 23.9838 2.26599 24.734C3.01624 25.4842 3.76866 25.9455 4.65739 26.2912C5.51668 26.6249 6.49701 26.8528 7.93425 26.9182C9.37476 26.9836 9.83385 27 13.5 27C17.1672 27 17.6263 26.9847 19.0658 26.9182C20.503 26.8528 21.4844 26.6249 22.3426 26.2912C23.2303 25.9455 23.9827 25.4842 24.734 24.734C25.4842 23.9838 25.9455 23.2302 26.2912 22.3426C26.6249 21.4844 26.8539 20.503 26.9182 19.0658C26.9836 17.6252 26.9989 17.1662 26.9989 13.5C26.9989 9.83384 26.9836 9.37367 26.9182 7.93425C26.8528 6.49701 26.6249 5.51559 26.2912 4.65739C25.9455 3.76975 25.4842 3.01733 24.734 2.26599C23.9838 1.51575 23.2303 1.05339 22.3437 0.708805C21.4844 0.375121 20.503 0.146123 19.0668 0.0817851C17.6274 0.016357 17.1672 0 13.5011 0C9.83385 0 9.37476 0.0152666 7.93425 0.0817851" fill="white"/>
</svg>
