<svg width="27" height="26" viewBox="0 0 27 26" fill="none" xmlns="http://www.w3.org/2000/svg">
<g clip-path="url(#clip0)">
<path d="M0 2.9971C0 2.12836 0.304063 1.41166 0.912162 0.847008C1.52026 0.282327 2.31082 0 3.28378 0C4.23939 0 5.01254 0.277975 5.60328 0.833977C6.21138 1.40734 6.51544 2.15442 6.51544 3.07529C6.51544 3.90927 6.22009 4.60423 5.62934 5.16023C5.02124 5.73359 4.22201 6.02027 3.23166 6.02027H3.2056C2.24999 6.02027 1.47684 5.73359 0.8861 5.16023C0.295358 4.58687 0 3.86582 0 2.9971ZM0.338803 25.8012V8.39189H6.12452V25.8012H0.338803ZM9.33012 25.8012H15.1158V16.0801C15.1158 15.472 15.1853 15.0029 15.3243 14.6728C15.5676 14.082 15.9368 13.5825 16.4319 13.1742C16.9271 12.7659 17.5483 12.5618 18.2954 12.5618C20.2413 12.5618 21.2143 13.8735 21.2143 16.4971V25.8012H27V15.8195C27 13.2481 26.3919 11.2978 25.1757 9.96863C23.9594 8.63948 22.3523 7.9749 20.3542 7.9749C18.1129 7.9749 16.3668 8.93919 15.1158 10.8678V10.9199H15.0898L15.1158 10.8678V8.39189H9.33012C9.36486 8.94787 9.38224 10.6766 9.38224 13.5782C9.38224 16.4797 9.36486 20.554 9.33012 25.8012Z" fill="white"/>
</g>
<defs>
<clipPath id="clip0">
<rect width="27" height="25.8012" fill="white"/>
</clipPath>
</defs>
</svg>
