<svg width="29" height="27" viewBox="0 0 29 27" fill="none" xmlns="http://www.w3.org/2000/svg">
<path d="M11.1583 26.1598L11.2017 26.1801L11.2384 26.1492L13.5364 24.2105H15.5826L17.8836 26.1463L17.9203 26.1771L17.9637 26.1568L22.7772 23.9065L22.821 23.8861L22.8204 23.8377L22.7844 20.7992L23.7749 19.46L27.0453 18.8774L27.095 18.8686L27.1055 18.8192L28.1923 13.707L28.2034 13.6548L28.1578 13.6272L25.459 11.9941L25.1162 10.1148L26.8229 7.44398L26.8522 7.39812L26.8177 7.35604L23.3029 3.06917L23.2717 3.03107L23.2243 3.0446L19.9893 3.96867L18.5839 3.24947L17.4108 0.45147L17.3915 0.405469H17.3416H11.7713H11.7215L11.7021 0.451407L10.526 3.24952L9.12055 3.9716L5.88865 3.04463L5.84124 3.03103L5.80997 3.06917L2.29522 7.35604L2.26072 7.39812L2.29002 7.44398L3.99671 10.1148L3.65384 11.9942L0.961005 13.6333L0.915555 13.6609L0.926648 13.713L2.01649 18.8252L2.02701 18.8745L2.07669 18.8834L5.3471 19.4659L6.3376 20.8051L6.30157 23.8407L6.30099 23.889L6.3448 23.9095L11.1583 26.1598ZM13.1699 23.1728H13.1425L13.1215 23.1905L11.033 24.9556L7.36634 23.2389L7.39609 20.4996L7.39636 20.4744L7.38135 20.4541L5.96455 18.5422L5.94682 18.5183L5.91749 18.513L2.90954 17.9757L2.09859 14.1642L4.58097 12.6541L4.60973 12.6366L4.61577 12.6035L5.10318 9.93158L5.10846 9.9026L5.09261 9.87777L3.55673 7.47142L6.21862 4.22367L9.20157 5.0799L9.23008 5.08808L9.25647 5.07456L11.3302 4.01174L11.3546 3.99926L11.3651 3.97404L12.4266 1.44609H16.6862L17.7447 3.97103L17.7553 3.99633L17.7797 4.00881L19.8535 5.06866L19.8798 5.08212L19.9082 5.07398L22.8912 4.22067L25.5531 7.4714L24.0172 9.87777L24.0014 9.9026L24.0067 9.93158L24.4941 12.6035L24.5001 12.6367L24.5291 12.6542L27.0173 14.1585L26.2064 17.9697L23.1984 18.5071L23.1691 18.5123L23.1514 18.5363L21.7346 20.4482L21.7196 20.4684L21.7198 20.4936L21.7496 23.236L18.0828 24.9527L15.9913 23.1905L15.9704 23.1728H15.943H13.1699ZM9.52568 13.2431C9.52568 15.9667 11.7827 18.178 14.5564 18.178C17.3302 18.178 19.5872 15.9667 19.5872 13.2431C19.5872 10.5195 17.3302 8.30828 14.5564 8.30828C11.7827 8.30828 9.52568 10.5195 9.52568 13.2431ZM10.5839 13.2431C10.5839 11.098 12.3653 9.34891 14.5564 9.34891C16.7476 9.34891 18.529 11.098 18.529 13.2431C18.529 15.3883 16.7476 17.1373 14.5564 17.1373C12.3653 17.1373 10.5839 15.3883 10.5839 13.2431Z" fill="black" stroke="black" stroke-width="0.15"/>
</svg>
