<svg width="34" height="27" viewBox="0 0 34 27" fill="none" xmlns="http://www.w3.org/2000/svg">
<g clip-path="url(#clip0)">
<path d="M33.0718 3.28806C31.8549 3.8277 30.5473 4.19242 29.1747 4.35646C30.5757 3.51669 31.6515 2.18699 32.1581 0.602661C30.8471 1.38013 29.395 1.94481 27.8495 2.24917C26.6118 0.930488 24.8484 0.106445 22.8969 0.106445C19.1497 0.106445 16.1116 3.14435 16.1116 6.89137C16.1116 7.42315 16.1718 7.94102 16.2874 8.43759C10.6483 8.15465 5.64878 5.4534 2.30229 1.34844C1.71825 2.35054 1.38365 3.51608 1.38365 4.75953C1.38365 7.11347 2.5816 9.19027 4.40219 10.407C3.28988 10.3718 2.24374 10.0666 1.32885 9.55837C1.32836 9.58668 1.32836 9.61511 1.32836 9.64366C1.32836 12.9311 3.66718 15.6735 6.77113 16.2967C6.20173 16.4518 5.60233 16.5347 4.98345 16.5347C4.54626 16.5347 4.12118 16.4922 3.70698 16.413C4.57034 19.1087 7.07609 21.0703 10.0452 21.1251C7.72304 22.9448 4.7974 24.0296 1.61857 24.0296C1.07094 24.0296 0.530813 23.9975 0 23.9348C3.0027 25.8599 6.56923 26.9831 10.4009 26.9831C22.8811 26.9831 29.7057 16.6443 29.7057 7.67815C29.7057 7.38395 29.6991 7.09133 29.6861 6.8004C31.0117 5.84377 32.1621 4.64872 33.0718 3.28806Z" fill="white"/>
</g>
<defs>
<clipPath id="clip0">
<rect width="33.0718" height="27" fill="white"/>
</clipPath>
</defs>
</svg>
